<?xml version="1.0" encoding="utf-8"?>
<!-- Generator: Adobe Illustrator 16.0.0, SVG Export Plug-In . SVG Version: 6.00 Build 0)  -->
<!DOCTYPE svg PUBLIC "-//W3C//DTD SVG 1.1//EN" "http://www.w3.org/Graphics/SVG/1.1/DTD/svg11.dtd">
<svg version="1.1" id="Layer_1" xmlns="http://www.w3.org/2000/svg" xmlns:xlink="http://www.w3.org/1999/xlink" x="0px" y="0px"
	 width="62px" height="60px" viewBox="0 0 62 60" style="enable-background:new 0 0 62 60;" xml:space="preserve">
<g>
	<g>
		<path style="fill:#D7D6D6;" d="M43.136,29.587c0,1.325,1.073,2.399,2.399,2.399h7.202c1.324,0,2.4-1.074,2.4-2.399v-0.003
			c0-1.324-1.076-2.399-2.4-2.399h-7.202c-1.326,0-2.399,1.075-2.399,2.399V29.587z"/>
	</g>
	<g>
		<path style="fill:#D3D3D3;" d="M28.754,51.394c0,1.323,1.073,2.4,2.4,2.4h0.002c1.324,0,2.4-1.077,2.4-2.4v-7.202
			c0-1.324-1.076-2.4-2.4-2.4h-0.002c-1.327,0-2.4,1.076-2.4,2.4V51.394z"/>
	</g>
	<g>
		<path style="fill:#A8A7A8;" d="M6.95,29.81c0,1.327,1.076,2.4,2.4,2.4h7.199c1.324,0,2.4-1.073,2.4-2.4c0-1.324-1.076-2.4-2.4-2.4
			H9.351C8.026,27.41,6.95,28.486,6.95,29.81C6.95,29.81,6.95,28.486,6.95,29.81z"/>
	</g>
	<g>
		<path style="fill:#919090;" d="M28.531,15.204c0,1.326,1.076,2.399,2.4,2.399s2.399-1.073,2.399-2.399v-7.2
			c0-1.326-1.075-2.401-2.399-2.401s-2.4,1.075-2.4,2.401V15.204z"/>
	</g>
	<g>
		<path style="fill:#D7D7D7;" d="M36.983,19.165c1.148,0.663,2.617,0.267,3.278-0.881l3.596-6.239
			c0.661-1.149,0.267-2.616-0.882-3.279h-0.002c-1.148-0.664-2.615-0.268-3.276,0.88l-3.596,6.243
			C35.438,17.037,35.835,18.503,36.983,19.165L36.983,19.165z"/>
	</g>
	<g>
		<path style="fill:#D7D7D7;" d="M48.699,42.514c1.148,0.66,2.616,0.266,3.276-0.883l0.003-0.002
			c0.661-1.148,0.267-2.615-0.882-3.279l-6.241-3.594c-1.148-0.662-2.615-0.266-3.276,0.883v0.003
			c-0.663,1.147-0.268,2.615,0.881,3.276L48.699,42.514z"/>
	</g>
	<g>
		<path style="fill:#C2C1C1;" d="M19.114,50.631c1.148,0.662,2.615,0.268,3.276-0.881l3.596-6.238
			c0.661-1.148,0.267-2.616-0.882-3.277c-1.148-0.662-2.617-0.268-3.278,0.881l-3.596,6.24
			C17.569,48.504,17.966,49.971,19.114,50.631C19.114,50.631,17.966,49.971,19.114,50.631z"/>
	</g>
	<g>
		<path style="fill:#A9A8A8;" d="M17.232,24.639c1.148,0.662,2.615,0.268,3.276-0.88s0.268-2.617-0.881-3.276l-6.239-3.596
			c-1.148-0.661-2.616-0.267-3.279,0.881c-0.661,1.148-0.267,2.616,0.882,3.277L17.232,24.639z"/>
	</g>
	<g>
		<path style="fill:#D7D7D7;" d="M41.48,23.589c0.656,1.154,2.124,1.552,3.276,0.891l6.249-3.581
			c1.148-0.656,1.547-2.124,0.888-3.274l-0.002-0.002c-0.656-1.148-2.123-1.547-3.271-0.888l-6.251,3.581
			C41.218,20.974,40.819,22.441,41.48,23.589L41.48,23.589z"/>
	</g>
	<g>
		<path style="fill:#D7D6D6;" d="M39.84,49.662c0.661,1.148,2.126,1.549,3.276,0.891l0.003-0.004
			c1.15-0.657,1.549-2.125,0.888-3.273l-3.578-6.25c-0.659-1.151-2.126-1.548-3.274-0.889h-0.005
			c-1.148,0.66-1.547,2.127-0.889,3.275L39.84,49.662z"/>
	</g>
	<g>
		<path style="fill:#B5B5B5;" d="M10.194,41.771c0.658,1.152,2.125,1.551,3.273,0.891l6.249-3.578
			c1.148-0.658,1.547-2.125,0.891-3.276c-0.661-1.15-2.128-1.549-3.276-0.888l-6.249,3.576C9.934,39.157,9.535,40.624,10.194,41.771
			C10.194,41.771,9.535,40.624,10.194,41.771z"/>
	</g>
	<g>
		<path style="fill:#8E8D8D;" d="M21.659,18.37c0.659,1.151,2.126,1.55,3.274,0.891s1.55-2.126,0.891-3.275l-3.581-6.248
			c-0.658-1.153-2.123-1.549-3.276-0.891c-1.148,0.658-1.547,2.123-0.889,3.277L21.659,18.37z"/>
	</g>
</g>
</svg>
