<?xml version="1.0" encoding="utf-8"?>
<!-- Generator: Adobe Illustrator 16.0.0, SVG Export Plug-In . SVG Version: 6.00 Build 0)  -->
<!DOCTYPE svg PUBLIC "-//W3C//DTD SVG 1.1//EN" "http://www.w3.org/Graphics/SVG/1.1/DTD/svg11.dtd">
<svg version="1.1" id="Layer_1" xmlns="http://www.w3.org/2000/svg" xmlns:xlink="http://www.w3.org/1999/xlink" x="0px" y="0px"
	 width="93px" height="126px" viewBox="473.5 156.5 93 126" enable-background="new 473.5 156.5 93 126" xml:space="preserve">
<g>
	<g>
		<g>
			<g enable-background="new    ">
				<g opacity="0.5">
					<text transform="matrix(1 0 0 1 486.998 273.2051)" fill="#FFFFFF" font-family="'Verdana'" font-size="28">Back</text>
				</g>
				<g>
					<text transform="matrix(1 0 0 1 486.998 271.2051)" fill="#3F3F3F" font-family="'Verdana'" font-size="28">Back</text>
				</g>
			</g>
			<g>
				<g opacity="0.5">
					<path fill-rule="evenodd" clip-rule="evenodd" fill="#FFFFFF" d="M486.57,198.231c0,0,16.994-18.798,28.32-28.064v15.963
						c0,0,36.818,0,37.337,33.468c0,0,0.77,16.736-6.698,25.234c0,0,7.468-19.824,0.256-30.125c0,0-5.92-16.22-30.895-10.297
						l0.257,15.708C513.087,220.118,486.57,198.231,486.57,198.231L486.57,198.231z"/>
				</g>
				<g>
					<linearGradient id="SVGID_1_" gradientUnits="userSpaceOnUse" x1="519.4102" y1="242.833" x2="519.4102" y2="168.167">
						<stop  offset="0" style="stop-color:#595959"/>
						<stop  offset="1" style="stop-color:#3F3F3F"/>
					</linearGradient>
					<path fill-rule="evenodd" clip-rule="evenodd" fill="url(#SVGID_1_)" d="M486.57,196.231c0,0,16.994-18.798,28.32-28.064
						v15.963c0,0,36.818,0,37.337,33.468c0,0,0.77,16.736-6.698,25.234c0,0,7.468-19.824,0.256-30.125c0,0-5.92-16.22-30.895-10.297
						l0.257,15.708C513.087,218.118,486.57,196.231,486.57,196.231L486.57,196.231z"/>
				</g>
			</g>
		</g>
	</g>
</g>
<path display="none" fill="#FFFFFF" fill-opacity="0.25" d="M49.031,448.618C21.258,389.768,11.2,321.715,26.996,253.401
	c4.995-21.603,12.87-42.849,22.005-62.089l265.017,129.36L49.031,448.618z"/>
<path display="none" fill="#FFFFFF" fill-opacity="0.25" d="M251.121,611.987c-63.345-14.903-122.317-50.427-165.945-105.316
	c-13.796-17.356-25.36-35.772-34.73-54.899l266.667-128.129L251.121,611.987z"/>
<path display="none" fill="#FFFFFF" fill-opacity="0.25" d="M619.909,321.721c-0.336,65.072-21.75,130.504-65.476,185.316
	c-13.825,17.333-29.184,32.728-45.727,46.144L324.109,321.984L619.909,321.721z"/>
<path display="none" fill="#FFFFFF" fill-opacity="0.25" d="M255.729,27.018c63.708-13.262,135.438-6.678,198.173,24.636
	c19.838,9.902,35.932,19.955,52.508,33.33L321.031,315.547L255.729,27.018z"/>
</svg>
