<?xml version="1.0" encoding="utf-8"?>
<!-- Generator: Adobe Illustrator 16.0.0, SVG Export Plug-In . SVG Version: 6.00 Build 0)  -->
<!DOCTYPE svg PUBLIC "-//W3C//DTD SVG 1.1//EN" "http://www.w3.org/Graphics/SVG/1.1/DTD/svg11.dtd">
<svg version="1.1" id="Layer_1" xmlns="http://www.w3.org/2000/svg" xmlns:xlink="http://www.w3.org/1999/xlink" x="0px" y="0px"
	 width="270px" height="167px" viewBox="352.735 244.445 270 167" enable-background="new 352.735 244.445 270 167"
	 xml:space="preserve">
<g>
	<g>
		<polyline fill="#ED1C24" points="517.862,338.174 517.862,304.372 498.646,338.174 517.862,338.174 		"/>
		<path d="M439.989,317.075l-11.358,20.499h14.513l-1.413,4.375c-3.635,10.699-15.115,18.887-24.258,18.887
			c-17.158,0-29.443-13.219-29.443-30.856c0-16.381,10.23-30.241,28.824-30.241c0.689,0,1.361,0.026,2.025,0.052v-0.1h28.361
			l-14.511-26.187c-6.322-0.002-10.134-0.208-17.301-0.208c-31.335,0-56.057,26.129-56.057,56.991
			c0,30.864,24.722,57.005,56.057,57.005c29.343,0,49.647-21.031,55.069-45.635l-13.625-24.583L439.989,317.075"/>
		<path d="M583.512,306.566c0-4.729,2.828-6.394,6.295-6.394h20.068l-14.906-26.642h-9.088c-17.178,0-32.963,12.828-32.963,31.188
			c0,18.551,30.441,34.927,30.441,45.287c0,7.052-4.42,9.58-10.711,9.58h-19.756v0.009h1.133l12.43,22.28l2.709,4.888h14.354
			c16.396,0,32.383-14.927,32.383-32.832C615.901,328.096,583.512,315.851,583.512,306.566"/>
		<path fill="#ED1C24" d="M554.026,359.595h-1.133h-10.785v25.811h-24.246v-25.811h-38.159l14.988,26.847
			c0,0,9.697,18.053,36.405,18.053c36.398,0,47.781-0.182,47.781-0.182l-9.713-17.549l-2.709-4.888L554.026,359.595"/>
		<path fill="#ED1C24" d="M502.57,286.899c6.767-12.361-0.559-22.531-0.559-22.531s-6.49-10.81-26.645-10.81
			c-20.146,0-53.691,0-53.691,0l11.055,19.946l14.511,26.187l9.634,17.384l13.625,24.583l0.129,0.236
			C470.628,341.895,495.797,299.267,502.57,286.899"/>
	</g>
</g>
</svg>
