<?xml version="1.0" encoding="utf-8"?>
<!-- Generator: Adobe Illustrator 16.0.0, SVG Export Plug-In . SVG Version: 6.00 Build 0)  -->
<!DOCTYPE svg PUBLIC "-//W3C//DTD SVG 1.1//EN" "http://www.w3.org/Graphics/SVG/1.1/DTD/svg11.dtd">
<svg version="1.1" id="Layer_1" xmlns="http://www.w3.org/2000/svg" xmlns:xlink="http://www.w3.org/1999/xlink" x="0px" y="0px"
	 width="416px" height="70.389px" viewBox="50.5 182.5 416 70.389" style="enable-background:new 50.5 182.5 416 70.389;"
	 xml:space="preserve">
<g style="opacity:0.9;">
	
		<linearGradient id="SVGID_1_" gradientUnits="userSpaceOnUse" x1="232.8145" y1="-169.6548" x2="232.8145" y2="-231.6558" gradientTransform="matrix(1 0 0 -1 25.5 15)">
		<stop  offset="0.0824" style="stop-color:#ECECED"/>
		<stop  offset="0.14" style="stop-color:#E6E6E7"/>
		<stop  offset="0.3459" style="stop-color:#D5D6D8"/>
		<stop  offset="0.5" style="stop-color:#CFD0D2"/>
		<stop  offset="0.5" style="stop-color:#B9BBBD"/>
		<stop  offset="1" style="stop-color:#BDBFC2"/>
	</linearGradient>
	<path style="fill:url(#SVGID_1_);" d="M74.146,246.655c-9.839,0-17.845-8.004-17.845-17.845v-26.309
		c0-9.841,8.006-17.847,17.845-17.847h368.336c9.84,0,17.846,8.006,17.846,17.847v26.309c0,9.841-8.006,17.845-17.846,17.845H74.146
		z"/>
	<path style="fill:#2D3137;" d="M442.482,184.961c9.688,0,17.541,7.853,17.541,17.541v26.309c0,9.687-7.854,17.541-17.541,17.541
		H74.146c-9.687,0-17.54-7.854-17.54-17.541v-26.309c0-9.688,7.854-17.541,17.54-17.541H442.482 M442.482,184.352H74.146
		c-10.007,0-18.149,8.142-18.149,18.15v26.309c0,10.009,8.143,18.149,18.149,18.149h368.336c10.008,0,18.147-8.143,18.147-18.149
		v-26.309C460.633,192.493,452.49,184.352,442.482,184.352L442.482,184.352z"/>
	<path style="fill:#353940;" d="M442.482,186.179c9,0,16.319,7.322,16.319,16.323v26.309c0,9-7.319,16.322-16.319,16.322H74.146
		c-9,0-16.321-7.322-16.321-16.322v-26.309c0-9,7.321-16.323,16.321-16.323H442.482 M442.482,184.961H74.146
		c-9.687,0-17.54,7.853-17.54,17.541v26.309c0,9.687,7.854,17.541,17.54,17.541h368.336c9.688,0,17.541-7.854,17.541-17.541v-26.309
		C460.023,192.813,452.17,184.961,442.482,184.961L442.482,184.961z"/>
</g>
<path style="fill:#121416;" d="M442.482,183.5H74.146c-10.478,0-19.002,8.524-19.002,19.002v1.461
	c0-10.478,8.524-19.002,19.002-19.002h368.336c10.479,0,19.002,8.524,19.002,19.002v-1.461
	C461.484,192.025,452.961,183.5,442.482,183.5z"/>
<path style="fill:#737881;" d="M442.482,247.812H74.146c-10.478,0-19.002-8.524-19.002-19.002v1.462
	c0,10.479,8.524,19.002,19.002,19.002h368.336c10.479,0,19.002-8.522,19.002-19.002v-1.462
	C461.484,239.288,452.961,247.812,442.482,247.812z"/>
<path style="fill:#FFFFFF;" d="M442.482,187.885H74.146c-8.06,0-14.616,6.558-14.616,14.617v1.461
	c0-8.06,6.557-14.616,14.616-14.616h368.336c8.061,0,14.614,6.559,14.614,14.616v-1.461
	C457.1,194.443,450.543,187.885,442.482,187.885z"/>
<text transform="matrix(1 0 0 1 214.4785 225.6006)" style="font-family:'Helvetica-Bold'; font-size:29.2331;">Log in</text>
</svg>
