<?xml version="1.0" encoding="utf-8"?>
<!-- Generator: Adobe Illustrator 16.0.0, SVG Export Plug-In . SVG Version: 6.00 Build 0)  -->
<!DOCTYPE svg PUBLIC "-//W3C//DTD SVG 1.1//EN" "http://www.w3.org/Graphics/SVG/1.1/DTD/svg11.dtd">
<svg version="1.1" id="Layer_1" xmlns="http://www.w3.org/2000/svg" xmlns:xlink="http://www.w3.org/1999/xlink" x="0px" y="0px"
	 width="151.076px" height="101.406px" viewBox="239.5 258.094 151.076 101.406"
	 style="enable-background:new 239.5 258.094 151.076 101.406;" xml:space="preserve">
<g>
	<g style="opacity:0.5;">
		<polyline style="fill:#FFFFFF;" points="331.403,316.639 331.403,297.616 320.589,316.639 331.403,316.639 		"/>
		<path style="fill:#FFFFFF;" d="M287.579,304.765l-6.392,11.536h8.167l-0.794,2.463c-2.046,6.021-8.506,10.629-13.652,10.629
			c-9.656,0-16.569-7.439-16.569-17.365c0-9.219,5.757-17.019,16.222-17.019c0.387,0,0.765,0.015,1.139,0.029v-0.056h15.961
			l-8.167-14.737c-3.558-0.001-5.704-0.117-9.737-0.117c-17.634,0-31.547,14.705-31.547,32.073
			c0,17.368,13.913,32.081,31.547,32.081c16.514,0,27.94-11.836,30.991-25.683l-7.667-13.834L287.579,304.765"/>
		<path style="fill:#FFFFFF;" d="M368.349,298.851c0-2.662,1.592-3.599,3.542-3.599h11.294l-8.389-14.993h-5.114
			c-9.667,0-18.551,7.219-18.551,17.552c0,10.44,17.132,19.656,17.132,25.486c0,3.969-2.487,5.391-6.027,5.391h-11.119v0.006h0.639
			l6.995,12.538l1.524,2.751h8.077c9.228,0,18.225-8.4,18.225-18.477C386.576,310.967,368.349,304.076,368.349,298.851"/>
		<path style="fill:#FFFFFF;" d="M351.755,328.693h-0.638h-6.069v14.525h-13.645v-14.525h-21.475l8.435,15.108
			c0,0,5.457,10.16,20.487,10.16c20.483,0,26.89-0.103,26.89-0.103l-5.466-9.876l-1.524-2.751L351.755,328.693"/>
		<path style="fill:#FFFFFF;" d="M322.797,287.782c3.809-6.956-0.314-12.679-0.314-12.679s-3.652-6.083-14.995-6.083
			c-11.337,0-30.216,0-30.216,0l6.222,11.225l8.167,14.737l5.421,9.783l7.668,13.835l0.072,0.133
			C304.821,318.732,318.985,294.743,322.797,287.782"/>
	</g>
	<g>
		<g>
			<g>
				<linearGradient id="SVGID_1_" gradientUnits="userSpaceOnUse" x1="325.9961" y1="314.6387" x2="325.9961" y2="295.6157">
					<stop  offset="0" style="stop-color:#595959"/>
					<stop  offset="1" style="stop-color:#3F3F3F"/>
				</linearGradient>
				<polyline style="fill:url(#SVGID_1_);" points="331.403,314.639 331.403,295.616 320.589,314.639 331.403,314.639 				"/>
				<linearGradient id="SVGID_2_" gradientUnits="userSpaceOnUse" x1="273.478" y1="342.2812" x2="273.478" y2="278.1274">
					<stop  offset="0" style="stop-color:#595959"/>
					<stop  offset="1" style="stop-color:#3F3F3F"/>
				</linearGradient>
				<path style="fill:url(#SVGID_2_);" d="M287.579,302.765l-6.392,11.536h8.167l-0.794,2.462
					c-2.046,6.021-8.506,10.629-13.652,10.629c-9.656,0-16.569-7.439-16.569-17.365c0-9.219,5.757-17.019,16.222-17.019
					c0.387,0,0.765,0.015,1.139,0.029v-0.056h15.961l-8.167-14.737c-3.558-0.001-5.704-0.117-9.737-0.117
					c-17.634,0-31.547,14.705-31.547,32.073c0,17.368,13.913,32.081,31.547,32.081c16.514,0,27.94-11.836,30.991-25.683
					l-7.667-13.834L287.579,302.765"/>
				<linearGradient id="SVGID_3_" gradientUnits="userSpaceOnUse" x1="368.8457" y1="341.9824" x2="368.8457" y2="278.2593">
					<stop  offset="0" style="stop-color:#595959"/>
					<stop  offset="1" style="stop-color:#3F3F3F"/>
				</linearGradient>
				<path style="fill:url(#SVGID_3_);" d="M368.349,296.851c0-2.662,1.592-3.599,3.542-3.599h11.294l-8.389-14.993h-5.114
					c-9.667,0-18.551,7.219-18.551,17.552c0,10.44,17.132,19.656,17.132,25.486c0,3.969-2.487,5.391-6.027,5.391h-11.119v0.006
					h0.639l6.995,12.538l1.524,2.751h8.077c9.228,0,18.225-8.4,18.225-18.477C386.576,308.967,368.349,302.076,368.349,296.851"/>
				<linearGradient id="SVGID_4_" gradientUnits="userSpaceOnUse" x1="337.834" y1="351.9619" x2="337.834" y2="326.6934">
					<stop  offset="0" style="stop-color:#595959"/>
					<stop  offset="1" style="stop-color:#3F3F3F"/>
				</linearGradient>
				<path style="fill:url(#SVGID_4_);" d="M351.755,326.693h-0.638h-6.069v14.525h-13.645v-14.525h-21.475l8.435,15.108
					c0,0,5.457,10.16,20.487,10.16c20.483,0,26.89-0.103,26.89-0.103l-5.466-9.876l-1.524-2.751L351.755,326.693"/>
				<linearGradient id="SVGID_5_" gradientUnits="userSpaceOnUse" x1="300.8423" y1="316.7324" x2="300.8423" y2="267.0195">
					<stop  offset="0" style="stop-color:#595959"/>
					<stop  offset="1" style="stop-color:#3F3F3F"/>
				</linearGradient>
				<path style="fill:url(#SVGID_5_);" d="M322.797,285.782c3.809-6.956-0.314-12.679-0.314-12.679s-3.652-6.083-14.995-6.083
					c-11.337,0-30.216,0-30.216,0l6.222,11.225l8.167,14.737l5.421,9.783l7.668,13.834l0.072,0.133
					C304.821,316.732,318.985,292.743,322.797,285.782"/>
			</g>
		</g>
	</g>
</g>
</svg>
