<?xml version="1.0" encoding="utf-8"?>
<!-- Generator: Adobe Illustrator 16.0.0, SVG Export Plug-In . SVG Version: 6.00 Build 0)  -->
<!DOCTYPE svg PUBLIC "-//W3C//DTD SVG 1.1//EN" "http://www.w3.org/Graphics/SVG/1.1/DTD/svg11.dtd">
<svg version="1.1" id="Layer_1" xmlns="http://www.w3.org/2000/svg" xmlns:xlink="http://www.w3.org/1999/xlink" x="0px" y="0px"
	 width="96px" height="99.334px" viewBox="273.834 245.834 96 99.334" style="enable-background:new 273.834 245.834 96 99.334;"
	 xml:space="preserve">
<g>
	<g style="opacity:0.5;">
		<path style="fill-rule:evenodd;clip-rule:evenodd;fill:#FFFFFF;" d="M363.57,290.48v45.553c0,6.896-6.898,7.502-6.898,7.502
			h-69.644c-8.703,0-6.3-7.502-6.3-7.502v-47.886c0-7.203,6.965-5.708,6.965-5.708h3.486c0-16.677,13.522-28.849,30.2-28.849
			c16.677,0,31.1,12.171,31.1,28.849l4.193-0.067C364.175,282.373,363.57,290.48,363.57,290.48L363.57,290.48z M316.675,314.29
			c1.097,0.376-3.588,18.703-3.588,18.703l14.62-0.105c0,0-4.229-18.509-3.658-18.731c4.091-1.555,6.992-5.516,6.992-10.15
			c0-6.001-4.861-10.863-10.862-10.863c-5.998,0-10.862,4.862-10.862,10.863C309.316,308.781,312.391,312.833,316.675,314.29
			L316.675,314.29z M322.188,260.458c-13.097,0-23.713,8.815-23.713,21.915h47.43C345.904,269.273,335.287,260.458,322.188,260.458
			L322.188,260.458z"/>
	</g>
	<g>
		<linearGradient id="SVGID_1_" gradientUnits="userSpaceOnUse" x1="322.0029" y1="341.5352" x2="322.0029" y2="251.5918">
			<stop  offset="0" style="stop-color:#595959"/>
			<stop  offset="1" style="stop-color:#3F3F3F"/>
		</linearGradient>
		<path style="fill-rule:evenodd;clip-rule:evenodd;fill:url(#SVGID_1_);" d="M363.57,288.48v45.553
			c0,6.896-6.898,7.502-6.898,7.502h-69.644c-8.703,0-6.3-7.502-6.3-7.502v-47.886c0-7.203,6.965-5.708,6.965-5.708h3.486
			c0-16.677,13.522-28.849,30.2-28.849c16.677,0,31.1,12.171,31.1,28.849l4.193-0.067C364.175,280.373,363.57,288.48,363.57,288.48
			L363.57,288.48z M316.675,312.29c1.097,0.376-3.588,18.703-3.588,18.703l14.62-0.105c0,0-4.229-18.509-3.658-18.731
			c4.091-1.555,6.992-5.516,6.992-10.15c0-6.001-4.861-10.863-10.862-10.863c-5.998,0-10.862,4.862-10.862,10.863
			C309.316,306.781,312.391,310.833,316.675,312.29L316.675,312.29z M322.188,258.458c-13.097,0-23.713,8.815-23.713,21.915h47.43
			C345.904,267.273,335.287,258.458,322.188,258.458L322.188,258.458z"/>
	</g>
</g>
</svg>
